<?xml version="1.0" encoding="utf-8"?>
<!-- Generator: Adobe Illustrator 22.0.1, SVG Export Plug-In . SVG Version: 6.00 Build 0)  -->
<svg version="1.1" xmlns="http://www.w3.org/2000/svg" xmlns:xlink="http://www.w3.org/1999/xlink" x="0px" y="0px"
	 viewBox="0 0 296.5 125" style="enable-background:new 0 0 296.5 125;" xml:space="preserve">
<style type="text/css">
	.st0{display:none;}
	.st1{display:inline;fill:none;stroke:#000000;stroke-miterlimit:10;}
	.st2{fill:#FF0000;}
	.st3{fill:none;}
	.st4{font-family:'Monoglyceride';}
	.st5{font-size:13px;}
	.st6{letter-spacing:1;}
</style>
<g id="Layer_3" class="st0">
	<line class="st1" x1="97.8" y1="132.6" x2="34.2" y2="-16.6"/>
</g>
<g id="Layer_2">
	<g>
		<path class="st2" d="M132.7,108.7c0,3.2-1.7,6.3-5.2,9.4v-0.1c-3.3,2.8-7.8,4.3-13.5,4.3c-7.4,0-12.9-1.3-16.5-3.9
			c-1.1-0.8-2.4-2.1-4-3.9c-2.6-3-4.1-4.6-4.4-5C75.4,94.9,66,86.5,60.9,84c-2.2-0.8-4.4-1.7-6.6-2.5c-2.2-0.9-3.3-2.5-3.3-4.9
			c0-4,3.4-6.3,10.3-6.8c7.4-0.6,13.3-3.6,17.9-8.9c4.6-5.3,6.9-11.8,6.9-19.6C86.2,23.8,75,15,52.7,15h-1
			c-5.5,22.7-8.3,47.1-8.3,73.3c0,4.5,0.1,9.3,0.4,14.3c0.3,5,0.4,7.7,0.4,8.1c0,6-2.1,9-6.2,9c-3.4,0-5.5-2-6.6-6.1
			c-0.8-3.3-1.2-10-1.2-20.1c0-31.1,2.7-56.8,8.1-77.2c-15.9,2.7-24.6,4-26.3,4c-6.2,0-9.2-2.2-9.2-6.6C2.7,10.9,3.8,9,6.1,8
			c1.3-0.6,3-0.9,5.1-1c1.8-0.1,3.5-0.2,5.4-0.2c1.3-0.1,6.9-1,16.6-2.6C40.5,3,46.7,2.4,52,2.4c32,0,47.9,12.7,47.9,38.1
			c0,8-2.2,15.5-6.6,22.3c-4.4,6.8-10.6,12.2-18.6,16c6.2,4.7,12.4,10.3,18.4,16.6c7.1,7.5,10.8,11.3,11,11.4
			c2.2,1.9,5.8,2.9,10.8,2.9c2.4,0,3.9-0.3,4.6-1c1.4-1.5,2.8-2.9,4.1-4.4c1.4-1.3,2.8-1.9,4.1-1.9c1.4,0,2.6,0.6,3.5,1.8
			C132.2,105.4,132.7,106.9,132.7,108.7z"/>
		<path class="st2" d="M150.1,71.2c0,2.1-2.5,4.1-7.4,5.9c-4.8,1.8-10.5,3-17.1,3.6c-3.9,0.3-9.8,0.5-17.5,0.5
			c-2.7,0-4.6-0.1-5.6-0.3c-2.4-0.5-3.7-1.5-3.7-3.2c0-1,0.3-1.9,1-2.5c0.7-0.7,1.5-1,2.4-1h3.4c1.2-5.9,1.8-18.5,1.8-37.6
			c0-0.8,0-5.3-0.1-13.4c-0.8,0-1.6,0-2.5,0c-0.9,0-1.3,0-1.3,0c-2.6,0-3.9-1.1-3.9-3.4c0-1.5,0.7-2.5,2-3.1
			c1.2-0.5,3.4-0.8,6.4-0.8c12.7,0,22.8,1.1,30.4,3.4c5.1,1.5,7.6,3.3,7.6,5.4c0,0.9-0.3,1.6-1,2.3c-0.6,0.7-1.4,1-2.1,1
			c-0.4,0-1.4-0.3-2.8-0.9c-1.8-0.8-3.4-1.3-4.6-1.6c-3.3-0.8-10.3-1.6-20.9-2.3c0,4.4,0,11.4-0.1,21.1c3.1,0.2,6,0.3,8.9,0.3
			c2,0,4-0.1,6.2-0.2c2.1-0.1,3.3-0.2,3.4-0.2c2.6,0,4,1.1,4,3.4c0,1.8-1.1,2.9-3.3,3.3c-1.5,0.3-4.9,0.5-10.2,0.5
			c-2.9,0-5.9-0.1-9-0.2c-0.2,11.2-0.7,18.8-1.4,22.9h1.5c9.8,0,17.2-0.7,22.2-2.2c1.3-0.4,3.3-1.2,5.7-2.5c2-1,3.4-1.5,4.4-1.5
			c0.9,0,1.7,0.3,2.3,1C149.8,69.7,150.1,70.4,150.1,71.2z"/>
		<path class="st2" d="M209.5,48.4c0,22.5-14.5,33.7-43.6,33.7c-2.5,0-5.1-0.1-7.7-0.3c-0.7,2.1-1.9,3.2-3.6,3.2
			c-1,0-1.8-0.3-2.5-0.8c-0.7-0.5-1-1.2-1-1.9c0,0.5,0.4-2.4,1.2-8.6c0.8-6.2,1.2-12.7,1.2-19.4c0-9.6-0.6-18.7-1.7-27.5
			c-2.2-0.4-3.3-1.7-3.3-3.8c0-1.4,0.8-2.5,2.4-3.3l-0.1-0.6c0-0.1,0-0.2,0-0.3c0-0.1,0-0.2,0-0.2c0-2.1,1.2-3.2,3.6-3.2
			c2,0,3.2,0.9,3.6,2.7c5.1-1,9.8-1.5,14.1-1.5c11.9,0,21.1,2.8,27.6,8.3C206.3,30.5,209.5,38.3,209.5,48.4z M201.7,48.8
			c0-8.1-2.5-14.3-7.6-18.5c-5.1-4.3-12.4-6.4-22-6.4c-3.4,0-7.8,0.5-13,1.5c1.2,9.7,1.9,19.2,1.9,28.8c0,7.1-0.5,14-1.4,20.6
			c1.1,0.1,2.8,0.1,4.8,0.1c11,0,19.1-1.2,24.4-3.6C197.4,67.4,201.7,59.9,201.7,48.8z"/>
	</g>
</g>
<g id="Layer_4">
	<rect x="133" y="90" class="st3" width="151.5" height="15"/>
	<text transform="matrix(1 0 0 1 138.9609 99.165)" class="st4 st5 st6">Rachel’s Eco Design</text>
</g>
</svg>
